<?xml version="1.0" encoding="utf-8"?>
<!-- Generator: Adobe Illustrator 19.1.0, SVG Export Plug-In . SVG Version: 6.00 Build 0)  -->
<svg version="1.1" id="Layer_1" xmlns="http://www.w3.org/2000/svg" xmlns:xlink="http://www.w3.org/1999/xlink" x="0px" y="0px"
	 viewBox="0 0 64 64" enable-background="new 0 0 64 64" xml:space="preserve">
<g>
	<path fill="#cccccc" d="M31.9335995,13.7784004c-14.3320999,0-17.4706993,11.7616997-17.4706993,16.2938995
		c0,12.5985985,5.9384003,19.8241997,16.2938995,19.8241997c8.522501,0,10.8438015-1.1727982,11.0810986-1.3055992
		c0.4726028-0.267601,0.6357002-0.8584023,0.3799019-1.3368988c-0.2559013-0.4786034-0.8544998-0.6612015-1.3428001-0.4169998
		c-0.0205002,0.0106964-2.1913986,1.0594978-10.1182003,1.0594978c-12.4365005,0-14.2938995-11.1669998-14.2938995-17.8241997
		c0-0.1425991,0.1767006-14.2938995,15.4706993-14.2938995c13.4609013,0,15.4707012,8.9559994,15.4707012,14.2938995
		c0,9.6484985-2.7862015,10.7647018-4.8819008,10.7647018c-3.0038986,0-3.6943016-0.9522018-3.7060013-1.3526001v-2.1851006
		c0.0060997-0.0564003,0.0081024-0.113102,0.0068016-0.1723022c-0.0001984-0.0093994-0.0063019-0.0177994-0.0068016-0.0271988
		V23.0137005c0-0.5527-0.4473-1-1-1c-0.5527992,0-1,0.4473-1,1l0.0002022,1.1016998
		c-0.9153023-0.816-2.8641014-2.1016998-6.0598011-2.1016998c-4.977499,0-8.0585995,4.9179993-8.0585995,9.4736996
		c0,6.7509003,2.7110004,10.1738014,8.0585995,10.1738014c2.980402,0,5.1192989-1.4179001,6.0597019-2.1812019
		c-0.0079002,0.2755013,0.0413971,1.0569992,0.7478981,1.8246994c0.9356003,1.0166016,2.6035004,1.5323029,4.9580002,1.5323029
		c6.8819008,0,6.8819008-9.2735023,6.8819008-12.7647018C49.4043007,25.1728992,47.7020988,13.7784004,31.9335995,13.7784004z
		 M30.7567997,39.6612015c-4.1903992,0-6.0585995-2.5205002-6.0585995-8.1738014
		c0-3.0137005,1.9258003-7.4736996,6.0585995-7.4736996c3.5282993,0,5.0244007,1.8769989,5.0810986,1.9491997
		c0.0244026,0.0342007,0.0517006,0.0664005,0.0810013,0.0967007c0.2812996,0.2919998,0.8974991,1.1152992,0.8974991,1.6602001
		c0,0.0018997,0.0011024,0.0035992,0.0011024,0.0054989l0.0021973,9.0777016
		C36.625,36.9944,36.2902985,37.2966003,35.9248009,37.6083984C35.9043007,37.6290016,33.8652,39.6612015,30.7567997,39.6612015z"/>
	<path fill="#cccccc" d="M32,0C14.3554001,0,0,14.3555002,0,32c0,17.6445999,14.3554001,32,32,32c17.6445007,0,32-14.3554001,32-32
		C64,14.3555002,49.6445007,0,32,0z M32,62C15.4580002,62,2,48.5419998,2,32C2,15.4581003,15.4580002,2,32,2s30,13.4581003,30,30
		C62,48.5419998,48.5419998,62,32,62z"/>
</g>
<g>
</g>
<g>
</g>
<g>
</g>
<g>
</g>
<g>
</g>
<g>
</g>
<g>
</g>
<g>
</g>
<g>
</g>
<g>
</g>
<g>
</g>
<g>
</g>
<g>
</g>
<g>
</g>
<g>
</g>
</svg>
