<svg height="640pt" viewBox="-20 -20 640.00001 640" width="640pt" xmlns="http://www.w3.org/2000/svg">
    <path fill="#aaaaaa" stroke="#f3f3f3" stroke-width="17px"
          d="m574.199219 244.503906-19.398438-10.601562c-4.835937-2.765625-10.988281-1.085938-13.75 3.75-2.761719 4.828125-1.085937 10.984375 3.75 13.75l19.300781 10.601562c9.726563 5.179688 15.828126 15.277344 15.898438 26.296875v1.699219l-178.800781 151.5-65.101563-67.902344c-9.429687-9.835937-22.46875-15.402344-36.097656-15.402344s-26.671875 5.566407-36.097656 15.402344l-65.101563 67.902344-178.800781-151.5v-1.800781c.023438-10.898438 5.957031-20.929688 15.5-26.195313l19.300781-10.601562c4.832031-2.765625 6.511719-8.921875 3.75-13.75-2.757812-4.835938-8.917969-6.515625-13.75-3.75l-19 10.601562c-15.933593 8.8125-25.816406 25.589844-25.800781 43.796875v261.699219c0 27.613281 22.386719 50 50 50h500c27.613281 0 50-22.386719 50-50v-261.699219c.015625-18.207031-9.867188-34.984375-25.800781-43.796875zm-554.199219 305.496094v-233.699219l164.902344 139.996094-94.902344 98.605469-24.300781 25.097656h-15.699219c-16.566406 0-30-13.433594-30-30zm73.398438 30 184.902343-193c12.007813-11.921875 31.390625-11.921875 43.398438 0l184.902343 193zm486.601562-30c0 16.566406-13.433594 30-30 30h-15.699219l-25.703125-26.800781-93.5-97.199219 164.902344-139.699219zm0 0"/>
    <path fill="#aaaaaa" stroke="#f3f3f3" stroke-width="17px"
          d="m10 100h70v210c0 5.523438 4.476562 10 10 10s10-4.476562 10-10v-210h260c5.523438 0 10-4.476562 10-10 .222656-35.085938 26.390625-64.589844 61.199219-69 .574219-.265625 1.109375-.597656 1.597656-1 37.5625 1.503906 67.230469 32.40625 67.203125 70v220c0 5.523438 4.476562 10 10 10s10-4.476562 10-10v-220c0-49.707031-40.292969-90-90-90h-340c-49.707031 0-90 40.292969-90 90 0 5.523438 4.476562 10 10 10zm80-80h293.5c-18.4375 14.886719-30.261719 36.449219-32.898438 60h-330c4.976563-34.480469 34.554688-60.058594 69.398438-60zm0 0"/>
    <text x="120" y="150" font-family="sans-serif" font-size="30px" fill="black">Kim Wüstkamp</text>
    <text x="120" y="180" font-family="sans-serif" font-size="30px" fill="black">Hollensiek 7</text>
    <text x="120" y="210" font-family="sans-serif" font-size="30px" fill="black">33619 Bielefeld</text>
    <text x="120" y="240" font-family="sans-serif" font-size="30px" fill="black">GERMANY</text>
</svg>
